<svg width="79" height="41" viewBox="0 0 79 41" fill="none" xmlns="http://www.w3.org/2000/svg">
<g opacity="0.33">
<mask id="path-1-outside-1_711_824" maskUnits="userSpaceOnUse" x="0" y="0" width="79" height="41" fill="black">
<rect fill="white" width="79" height="41"/>
<path d="M8.10513 1C9.02607 1 9.87667 1.22652 10.6581 1.67845C11.4395 2.13038 12.0523 2.74299 12.4966 3.51629C12.9409 4.28959 13.163 5.13543 13.163 6.05602C13.163 7.45309 12.6696 8.64596 11.6828 9.63239C10.696 10.6188 9.50272 11.112 8.10513 11.112H3.98494V18.2637H1V1H8.10513ZM8.10513 8.12708C8.68114 8.12708 9.17007 7.92622 9.57304 7.52339C9.97602 7.12056 10.177 6.63181 10.177 6.05602C10.177 5.48023 9.97491 4.99148 9.57304 4.58865C9.17007 4.18582 8.68114 3.98496 8.10513 3.98496H3.98494V8.12708H8.10513Z"/>
<path d="M25.2267 1H28.2116V18.2637H25.2267V11.1366H17.9976V18.2637H15.0127V1H17.9976V8.12708H25.2267V1Z"/>
<path d="M34.3679 2.15939C35.6918 1.38721 37.1352 1 38.698 1C40.2607 1 41.7041 1.38609 43.028 2.15939C44.3519 2.93269 45.4001 3.9805 46.1737 5.30392C46.9462 6.62735 47.3335 8.07017 47.3335 9.63239C47.3335 11.1946 46.9473 12.6374 46.1737 13.9609C45.4001 15.2843 44.3519 16.3332 43.028 17.1054C41.7041 17.8787 40.2607 18.2648 38.698 18.2648C37.1352 18.2648 35.6918 17.8787 34.3679 17.1054C33.044 16.3332 31.9947 15.2843 31.2222 13.9609C30.4486 12.6374 30.0624 11.1946 30.0624 9.63239C30.0624 8.07017 30.4486 6.62735 31.2222 5.30392C31.9947 3.9805 33.044 2.93269 34.3679 2.15939ZM34.7005 13.6272C35.8023 14.7286 37.134 15.2798 38.6968 15.2798C40.2596 15.2798 41.5914 14.7297 42.6931 13.6272C43.7949 12.5259 44.3463 11.1946 44.3463 9.63239C44.3463 8.07017 43.7949 6.73894 42.6931 5.63757C41.5914 4.5362 40.2585 3.98496 38.6968 3.98496C37.1352 3.98496 35.8023 4.5362 34.7005 5.63757C33.5988 6.73894 33.0473 8.07129 33.0473 9.63239C33.0473 11.1935 33.5977 12.5259 34.7005 13.6272Z"/>
<path d="M47.9497 1H60.1127V3.98384H55.5237V18.2637H52.5387V3.98384H47.9497V1Z"/>
<path d="M65.0344 2.15939C66.3583 1.38721 67.8017 1 69.3644 1C70.9272 1 72.3706 1.38609 73.6945 2.15939C75.0184 2.93269 76.0666 3.9805 76.8402 5.30392C77.6127 6.62735 78 8.07017 78 9.63239C78 11.1946 77.6138 12.6374 76.8402 13.9609C76.0666 15.2843 75.0184 16.3332 73.6945 17.1054C72.3706 17.8787 70.9272 18.2648 69.3644 18.2648C67.8017 18.2648 66.3583 17.8787 65.0344 17.1054C63.7105 16.3332 62.6612 15.2843 61.8887 13.9609C61.1151 12.6374 60.7289 11.1946 60.7289 9.63239C60.7289 8.07017 61.1151 6.62735 61.8887 5.30392C62.6612 3.9805 63.7105 2.93269 65.0344 2.15939ZM65.367 13.6272C66.4688 14.7286 67.8005 15.2798 69.3633 15.2798C70.9261 15.2798 72.2579 14.7297 73.3596 13.6272C74.4614 12.5259 75.0128 11.1946 75.0128 9.63239C75.0128 8.07017 74.4614 6.73894 73.3596 5.63757C72.2579 4.5362 70.925 3.98496 69.3633 3.98496C67.8017 3.98496 66.4688 4.5362 65.367 5.63757C64.2653 6.73894 63.7138 8.07129 63.7138 9.63239C63.7138 11.1935 64.2642 12.5259 65.367 13.6272Z"/>
<path d="M20.3553 21.0668C21.9114 20.9307 23.3837 21.1896 24.7702 21.8446C26.1566 22.4996 27.2918 23.4525 28.1782 24.7034C29.0634 25.9543 29.5746 27.3581 29.7108 28.9136C29.847 30.4703 29.588 31.941 28.9328 33.3258C28.2775 34.7117 27.3242 35.8477 26.0729 36.7326C24.8215 37.6186 23.4172 38.1285 21.8611 38.2646L16.724 38.7143L15.2192 21.5165L20.3564 21.0668H20.3553ZM21.5999 35.292C23.156 35.1558 24.4308 34.4919 25.4254 33.299C26.4189 32.1061 26.852 30.7314 26.7236 29.1747C26.5953 27.6181 25.9344 26.3393 24.7411 25.3373C23.5467 24.3363 22.1714 23.9034 20.6153 24.0395L18.4531 24.2292L19.4377 35.4817L21.5999 35.292Z"/>
<path d="M44.1599 26.8392C44.0751 27.8056 43.7436 28.6681 43.1665 29.4258C42.5882 30.1846 41.8626 30.7392 40.9897 31.0918L43.0961 39L39.9259 38.7233L37.9668 31.3976L34.5756 31.1007L33.9538 38.201L30.98 37.941L32.4848 20.7432L39.5631 21.3625C40.9551 21.4841 42.1004 22.08 42.9979 23.1479C43.8954 24.2169 44.2827 25.4477 44.1611 26.8392H44.1599ZM38.9413 28.4628C39.5151 28.513 40.0197 28.3557 40.4561 27.9886C40.8926 27.6226 41.1359 27.1572 41.1851 26.5915C41.2342 26.0269 41.0768 25.5214 40.7106 25.0773C40.3445 24.6331 39.8757 24.3854 39.3019 24.3352L35.1973 23.9759L34.8356 28.1035L38.9402 28.4628H38.9413Z"/>
<path d="M49.536 34.8757L46.6158 37.4824L60.538 38.2825L57.9248 35.3578L49.536 34.8757Z"/>
<path d="M49.0258 25.3986L46.4193 22.4817L45.6189 36.3978L48.5436 33.7866L49.0258 25.3986Z"/>
<path d="M58.5019 24.8943L61.4199 22.2887L47.5088 21.4886L50.1209 24.4122L58.5019 24.8943Z"/>
<path d="M59.4943 25.9845L59.0121 34.3636L61.6186 37.2804L62.419 23.3733L59.4943 25.9845Z"/>
<path d="M70.963 20.9485C71.8761 20.828 72.749 20.9418 73.5829 21.2877C74.4168 21.6348 75.1044 22.1615 75.6447 22.8701C76.1861 23.5786 76.5165 24.3888 76.6371 25.3015C76.819 26.6875 76.4864 27.9328 75.6369 29.0397C74.7874 30.1467 73.6689 30.7916 72.2835 30.9735L68.1991 31.5114L69.1334 38.6028L66.1741 38.9922L63.9204 21.8769L70.9652 20.9496L70.963 20.9485ZM71.894 28.0153C72.4644 27.9406 72.9232 27.6772 73.2703 27.2253C73.6175 26.7734 73.7537 26.2623 73.6778 25.6921C73.603 25.1219 73.3384 24.6633 72.8863 24.3162C72.4342 23.9692 71.923 23.8342 71.3526 23.9089L67.2681 24.4468L67.8095 28.5543L71.894 28.0165V28.0153Z"/>
</mask>
<path d="M8.10513 1C9.02607 1 9.87667 1.22652 10.6581 1.67845C11.4395 2.13038 12.0523 2.74299 12.4966 3.51629C12.9409 4.28959 13.163 5.13543 13.163 6.05602C13.163 7.45309 12.6696 8.64596 11.6828 9.63239C10.696 10.6188 9.50272 11.112 8.10513 11.112H3.98494V18.2637H1V1H8.10513ZM8.10513 8.12708C8.68114 8.12708 9.17007 7.92622 9.57304 7.52339C9.97602 7.12056 10.177 6.63181 10.177 6.05602C10.177 5.48023 9.97491 4.99148 9.57304 4.58865C9.17007 4.18582 8.68114 3.98496 8.10513 3.98496H3.98494V8.12708H8.10513Z" fill="white"/>
<path d="M25.2267 1H28.2116V18.2637H25.2267V11.1366H17.9976V18.2637H15.0127V1H17.9976V8.12708H25.2267V1Z" fill="white"/>
<path d="M34.3679 2.15939C35.6918 1.38721 37.1352 1 38.698 1C40.2607 1 41.7041 1.38609 43.028 2.15939C44.3519 2.93269 45.4001 3.9805 46.1737 5.30392C46.9462 6.62735 47.3335 8.07017 47.3335 9.63239C47.3335 11.1946 46.9473 12.6374 46.1737 13.9609C45.4001 15.2843 44.3519 16.3332 43.028 17.1054C41.7041 17.8787 40.2607 18.2648 38.698 18.2648C37.1352 18.2648 35.6918 17.8787 34.3679 17.1054C33.044 16.3332 31.9947 15.2843 31.2222 13.9609C30.4486 12.6374 30.0624 11.1946 30.0624 9.63239C30.0624 8.07017 30.4486 6.62735 31.2222 5.30392C31.9947 3.9805 33.044 2.93269 34.3679 2.15939ZM34.7005 13.6272C35.8023 14.7286 37.134 15.2798 38.6968 15.2798C40.2596 15.2798 41.5914 14.7297 42.6931 13.6272C43.7949 12.5259 44.3463 11.1946 44.3463 9.63239C44.3463 8.07017 43.7949 6.73894 42.6931 5.63757C41.5914 4.5362 40.2585 3.98496 38.6968 3.98496C37.1352 3.98496 35.8023 4.5362 34.7005 5.63757C33.5988 6.73894 33.0473 8.07129 33.0473 9.63239C33.0473 11.1935 33.5977 12.5259 34.7005 13.6272Z" fill="white"/>
<path d="M47.9497 1H60.1127V3.98384H55.5237V18.2637H52.5387V3.98384H47.9497V1Z" fill="white"/>
<path d="M65.0344 2.15939C66.3583 1.38721 67.8017 1 69.3644 1C70.9272 1 72.3706 1.38609 73.6945 2.15939C75.0184 2.93269 76.0666 3.9805 76.8402 5.30392C77.6127 6.62735 78 8.07017 78 9.63239C78 11.1946 77.6138 12.6374 76.8402 13.9609C76.0666 15.2843 75.0184 16.3332 73.6945 17.1054C72.3706 17.8787 70.9272 18.2648 69.3644 18.2648C67.8017 18.2648 66.3583 17.8787 65.0344 17.1054C63.7105 16.3332 62.6612 15.2843 61.8887 13.9609C61.1151 12.6374 60.7289 11.1946 60.7289 9.63239C60.7289 8.07017 61.1151 6.62735 61.8887 5.30392C62.6612 3.9805 63.7105 2.93269 65.0344 2.15939ZM65.367 13.6272C66.4688 14.7286 67.8005 15.2798 69.3633 15.2798C70.9261 15.2798 72.2579 14.7297 73.3596 13.6272C74.4614 12.5259 75.0128 11.1946 75.0128 9.63239C75.0128 8.07017 74.4614 6.73894 73.3596 5.63757C72.2579 4.5362 70.925 3.98496 69.3633 3.98496C67.8017 3.98496 66.4688 4.5362 65.367 5.63757C64.2653 6.73894 63.7138 8.07129 63.7138 9.63239C63.7138 11.1935 64.2642 12.5259 65.367 13.6272Z" fill="white"/>
<path d="M20.3553 21.0668C21.9114 20.9307 23.3837 21.1896 24.7702 21.8446C26.1566 22.4996 27.2918 23.4525 28.1782 24.7034C29.0634 25.9543 29.5746 27.3581 29.7108 28.9136C29.847 30.4703 29.588 31.941 28.9328 33.3258C28.2775 34.7117 27.3242 35.8477 26.0729 36.7326C24.8215 37.6186 23.4172 38.1285 21.8611 38.2646L16.724 38.7143L15.2192 21.5165L20.3564 21.0668H20.3553ZM21.5999 35.292C23.156 35.1558 24.4308 34.4919 25.4254 33.299C26.4189 32.1061 26.852 30.7314 26.7236 29.1747C26.5953 27.6181 25.9344 26.3393 24.7411 25.3373C23.5467 24.3363 22.1714 23.9034 20.6153 24.0395L18.4531 24.2292L19.4377 35.4817L21.5999 35.292Z" fill="white"/>
<path d="M44.1599 26.8392C44.0751 27.8056 43.7436 28.6681 43.1665 29.4258C42.5882 30.1846 41.8626 30.7392 40.9897 31.0918L43.0961 39L39.9259 38.7233L37.9668 31.3976L34.5756 31.1007L33.9538 38.201L30.98 37.941L32.4848 20.7432L39.5631 21.3625C40.9551 21.4841 42.1004 22.08 42.9979 23.1479C43.8954 24.2169 44.2827 25.4477 44.1611 26.8392H44.1599ZM38.9413 28.4628C39.5151 28.513 40.0197 28.3557 40.4561 27.9886C40.8926 27.6226 41.1359 27.1572 41.1851 26.5915C41.2342 26.0269 41.0768 25.5214 40.7106 25.0773C40.3445 24.6331 39.8757 24.3854 39.3019 24.3352L35.1973 23.9759L34.8356 28.1035L38.9402 28.4628H38.9413Z" fill="white"/>
<path d="M49.536 34.8757L46.6158 37.4824L60.538 38.2825L57.9248 35.3578L49.536 34.8757Z" fill="white"/>
<path d="M49.0258 25.3986L46.4193 22.4817L45.6189 36.3978L48.5436 33.7866L49.0258 25.3986Z" fill="white"/>
<path d="M58.5019 24.8943L61.4199 22.2887L47.5088 21.4886L50.1209 24.4122L58.5019 24.8943Z" fill="white"/>
<path d="M59.4943 25.9845L59.0121 34.3636L61.6186 37.2804L62.419 23.3733L59.4943 25.9845Z" fill="white"/>
<path d="M70.963 20.9485C71.8761 20.828 72.749 20.9418 73.5829 21.2877C74.4168 21.6348 75.1044 22.1615 75.6447 22.8701C76.1861 23.5786 76.5165 24.3888 76.6371 25.3015C76.819 26.6875 76.4864 27.9328 75.6369 29.0397C74.7874 30.1467 73.6689 30.7916 72.2835 30.9735L68.1991 31.5114L69.1334 38.6028L66.1741 38.9922L63.9204 21.8769L70.9652 20.9496L70.963 20.9485ZM71.894 28.0153C72.4644 27.9406 72.9232 27.6772 73.2703 27.2253C73.6175 26.7734 73.7537 26.2623 73.6778 25.6921C73.603 25.1219 73.3384 24.6633 72.8863 24.3162C72.4342 23.9692 71.923 23.8342 71.3526 23.9089L67.2681 24.4468L67.8095 28.5543L71.894 28.0165V28.0153Z" fill="white"/>
<path d="M8.10513 1C9.02607 1 9.87667 1.22652 10.6581 1.67845C11.4395 2.13038 12.0523 2.74299 12.4966 3.51629C12.9409 4.28959 13.163 5.13543 13.163 6.05602C13.163 7.45309 12.6696 8.64596 11.6828 9.63239C10.696 10.6188 9.50272 11.112 8.10513 11.112H3.98494V18.2637H1V1H8.10513ZM8.10513 8.12708C8.68114 8.12708 9.17007 7.92622 9.57304 7.52339C9.97602 7.12056 10.177 6.63181 10.177 6.05602C10.177 5.48023 9.97491 4.99148 9.57304 4.58865C9.17007 4.18582 8.68114 3.98496 8.10513 3.98496H3.98494V8.12708H8.10513Z" stroke="black" stroke-width="2" mask="url(#path-1-outside-1_711_824)"/>
<path d="M25.2267 1H28.2116V18.2637H25.2267V11.1366H17.9976V18.2637H15.0127V1H17.9976V8.12708H25.2267V1Z" stroke="black" stroke-width="2" mask="url(#path-1-outside-1_711_824)"/>
<path d="M34.3679 2.15939C35.6918 1.38721 37.1352 1 38.698 1C40.2607 1 41.7041 1.38609 43.028 2.15939C44.3519 2.93269 45.4001 3.9805 46.1737 5.30392C46.9462 6.62735 47.3335 8.07017 47.3335 9.63239C47.3335 11.1946 46.9473 12.6374 46.1737 13.9609C45.4001 15.2843 44.3519 16.3332 43.028 17.1054C41.7041 17.8787 40.2607 18.2648 38.698 18.2648C37.1352 18.2648 35.6918 17.8787 34.3679 17.1054C33.044 16.3332 31.9947 15.2843 31.2222 13.9609C30.4486 12.6374 30.0624 11.1946 30.0624 9.63239C30.0624 8.07017 30.4486 6.62735 31.2222 5.30392C31.9947 3.9805 33.044 2.93269 34.3679 2.15939ZM34.7005 13.6272C35.8023 14.7286 37.134 15.2798 38.6968 15.2798C40.2596 15.2798 41.5914 14.7297 42.6931 13.6272C43.7949 12.5259 44.3463 11.1946 44.3463 9.63239C44.3463 8.07017 43.7949 6.73894 42.6931 5.63757C41.5914 4.5362 40.2585 3.98496 38.6968 3.98496C37.1352 3.98496 35.8023 4.5362 34.7005 5.63757C33.5988 6.73894 33.0473 8.07129 33.0473 9.63239C33.0473 11.1935 33.5977 12.5259 34.7005 13.6272Z" stroke="black" stroke-width="2" mask="url(#path-1-outside-1_711_824)"/>
<path d="M47.9497 1H60.1127V3.98384H55.5237V18.2637H52.5387V3.98384H47.9497V1Z" stroke="black" stroke-width="2" mask="url(#path-1-outside-1_711_824)"/>
<path d="M65.0344 2.15939C66.3583 1.38721 67.8017 1 69.3644 1C70.9272 1 72.3706 1.38609 73.6945 2.15939C75.0184 2.93269 76.0666 3.9805 76.8402 5.30392C77.6127 6.62735 78 8.07017 78 9.63239C78 11.1946 77.6138 12.6374 76.8402 13.9609C76.0666 15.2843 75.0184 16.3332 73.6945 17.1054C72.3706 17.8787 70.9272 18.2648 69.3644 18.2648C67.8017 18.2648 66.3583 17.8787 65.0344 17.1054C63.7105 16.3332 62.6612 15.2843 61.8887 13.9609C61.1151 12.6374 60.7289 11.1946 60.7289 9.63239C60.7289 8.07017 61.1151 6.62735 61.8887 5.30392C62.6612 3.9805 63.7105 2.93269 65.0344 2.15939ZM65.367 13.6272C66.4688 14.7286 67.8005 15.2798 69.3633 15.2798C70.9261 15.2798 72.2579 14.7297 73.3596 13.6272C74.4614 12.5259 75.0128 11.1946 75.0128 9.63239C75.0128 8.07017 74.4614 6.73894 73.3596 5.63757C72.2579 4.5362 70.925 3.98496 69.3633 3.98496C67.8017 3.98496 66.4688 4.5362 65.367 5.63757C64.2653 6.73894 63.7138 8.07129 63.7138 9.63239C63.7138 11.1935 64.2642 12.5259 65.367 13.6272Z" stroke="black" stroke-width="2" mask="url(#path-1-outside-1_711_824)"/>
<path d="M20.3553 21.0668C21.9114 20.9307 23.3837 21.1896 24.7702 21.8446C26.1566 22.4996 27.2918 23.4525 28.1782 24.7034C29.0634 25.9543 29.5746 27.3581 29.7108 28.9136C29.847 30.4703 29.588 31.941 28.9328 33.3258C28.2775 34.7117 27.3242 35.8477 26.0729 36.7326C24.8215 37.6186 23.4172 38.1285 21.8611 38.2646L16.724 38.7143L15.2192 21.5165L20.3564 21.0668H20.3553ZM21.5999 35.292C23.156 35.1558 24.4308 34.4919 25.4254 33.299C26.4189 32.1061 26.852 30.7314 26.7236 29.1747C26.5953 27.6181 25.9344 26.3393 24.7411 25.3373C23.5467 24.3363 22.1714 23.9034 20.6153 24.0395L18.4531 24.2292L19.4377 35.4817L21.5999 35.292Z" stroke="black" stroke-width="2" mask="url(#path-1-outside-1_711_824)"/>
<path d="M44.1599 26.8392C44.0751 27.8056 43.7436 28.6681 43.1665 29.4258C42.5882 30.1846 41.8626 30.7392 40.9897 31.0918L43.0961 39L39.9259 38.7233L37.9668 31.3976L34.5756 31.1007L33.9538 38.201L30.98 37.941L32.4848 20.7432L39.5631 21.3625C40.9551 21.4841 42.1004 22.08 42.9979 23.1479C43.8954 24.2169 44.2827 25.4477 44.1611 26.8392H44.1599ZM38.9413 28.4628C39.5151 28.513 40.0197 28.3557 40.4561 27.9886C40.8926 27.6226 41.1359 27.1572 41.1851 26.5915C41.2342 26.0269 41.0768 25.5214 40.7106 25.0773C40.3445 24.6331 39.8757 24.3854 39.3019 24.3352L35.1973 23.9759L34.8356 28.1035L38.9402 28.4628H38.9413Z" stroke="black" stroke-width="2" mask="url(#path-1-outside-1_711_824)"/>
<path d="M49.536 34.8757L46.6158 37.4824L60.538 38.2825L57.9248 35.3578L49.536 34.8757Z" stroke="black" stroke-width="2" mask="url(#path-1-outside-1_711_824)"/>
<path d="M49.0258 25.3986L46.4193 22.4817L45.6189 36.3978L48.5436 33.7866L49.0258 25.3986Z" stroke="black" stroke-width="2" mask="url(#path-1-outside-1_711_824)"/>
<path d="M58.5019 24.8943L61.4199 22.2887L47.5088 21.4886L50.1209 24.4122L58.5019 24.8943Z" stroke="black" stroke-width="2" mask="url(#path-1-outside-1_711_824)"/>
<path d="M59.4943 25.9845L59.0121 34.3636L61.6186 37.2804L62.419 23.3733L59.4943 25.9845Z" stroke="black" stroke-width="2" mask="url(#path-1-outside-1_711_824)"/>
<path d="M70.963 20.9485C71.8761 20.828 72.749 20.9418 73.5829 21.2877C74.4168 21.6348 75.1044 22.1615 75.6447 22.8701C76.1861 23.5786 76.5165 24.3888 76.6371 25.3015C76.819 26.6875 76.4864 27.9328 75.6369 29.0397C74.7874 30.1467 73.6689 30.7916 72.2835 30.9735L68.1991 31.5114L69.1334 38.6028L66.1741 38.9922L63.9204 21.8769L70.9652 20.9496L70.963 20.9485ZM71.894 28.0153C72.4644 27.9406 72.9232 27.6772 73.2703 27.2253C73.6175 26.7734 73.7537 26.2623 73.6778 25.6921C73.603 25.1219 73.3384 24.6633 72.8863 24.3162C72.4342 23.9692 71.923 23.8342 71.3526 23.9089L67.2681 24.4468L67.8095 28.5543L71.894 28.0165V28.0153Z" stroke="black" stroke-width="2" mask="url(#path-1-outside-1_711_824)"/>
</g>
</svg>
